<svg xmlns="http://www.w3.org/2000/svg" version="1.1" xmlns:xlink="http://www.w3.org/1999/xlink" xmlns:svgjs="http://svgjs.dev/svgjs" viewBox="0 0 5.24632831302679 4.074365715776186"><g transform="matrix(1,0,0,1,2.6305812282283036,3.8772015471381382)"><rect width="5.24632831302679" height="4.074365715776186" x="-2.6305812282283036" y="-3.8772015471381382" fill="#ffffff"></rect><g><path d=" M -1.9307850918667446 -2.4246054114409237 L -1.9120688300475326 -2.417555479277087 Q -1.922412908418711 -2.3872569637581558 -1.9219700690585366 -2.369992726349539 Q -1.9215272296983623 -2.3527284889409223 -1.9070892319516068 -2.3414128262972818 Q -1.8926512342048514 -2.330097163653641 -1.858026149839309 -2.317054789150543 L -1.3938628567228484 -2.142216471487387 Q -1.3601735854482664 -2.1295265935924803 -1.3413902184659203 -2.1283286266453105 Q -1.3226068514835743 -2.1271306596981403 -1.3113520272067412 -2.139988689504359 Q -1.300097202929908 -2.1528467193105776 -1.2869456852858476 -2.1820877450049334 L -1.2682294234666356 -2.1750378128410963 Q -1.2799709546779285 -2.1495400395105833 -1.2954199670715623 -2.1099442314488535 Q -1.310868979465196 -2.0703484233871237 -1.3263788302256372 -2.029172647384857 Q -1.343298667418846 -1.9842536190187476 -1.3576356184174232 -1.9447732208943063 Q -1.3719725694160005 -1.905292822769865 -1.3792658550470673 -1.8802566891885055 L -1.3979821168662794 -1.8873066213523424 Q -1.3878688583696779 -1.9198292596613866 -1.3873150462720842 -1.9383209684023484 Q -1.3867612341744906 -1.95681267714331 -1.4014908901626304 -1.9687724946365268 Q -1.4162205461507702 -1.9807323121297438 -1.449909817425352 -1.9934221900246503 L -1.9561846996350398 -2.1841228550564393 L -1.953717223377697 -2.190673546693164 L -1.4347294992668023 -1.7301740980266165 L -1.440369444997872 -1.715201088571247 L -2.138207159788301 -1.6895393696874328 L -1.6899526892181704 -1.520693494363538 Q -1.638482969215337 -1.5013061809129864 -1.6087615033828482 -1.4965224095170906 Q -1.5790400375503593 -1.4917386381211948 -1.5601161934454189 -1.506516598883489 Q -1.5411923493404784 -1.5212945596457834 -1.521003433125234 -1.560707852607091 L -1.502287171306022 -1.553657920443254 Q -1.5108562330435882 -1.5365824649313862 -1.5222515344430159 -1.507748507415703 Q -1.5336468358424433 -1.4789145499000202 -1.5431642442636233 -1.453647596444084 Q -1.5512716662520356 -1.4321238953519901 -1.5592636783031597 -1.4094881328648396 Q -1.5672556903542838 -1.3868523703776892 -1.571024009903432 -1.3711743677059358 L -1.5897402717226443 -1.3782242998697727 Q -1.583139445715308 -1.4099328018214714 -1.5887292570757658 -1.429135770575143 Q -1.5943190684362236 -1.448338739328815 -1.6181151970925851 -1.463179368054374 Q -1.6419113257489466 -1.4780199967799332 -1.6868303541150558 -1.494939833973142 L -2.1079462450473283 -1.6535633076594731 Q -2.1425713294128705 -1.6666056821625714 -2.1608867898497364 -1.6676274008056455 Q -2.179202250286602 -1.6686491194487194 -2.191101229413012 -1.6554994314011164 Q -2.203000208539421 -1.6423497433535135 -2.214863416484329 -1.6136920341419265 L -2.233579678303541 -1.6207419663057634 Q -2.227003919481511 -1.6353624791529413 -2.217608187793946 -1.6574694967278039 Q -2.208212456106381 -1.6795765143026666 -2.2001050341179686 -1.7011002153947605 Q -2.1849476799657195 -1.7413401783060667 -2.1712548838167183 -1.7805289181891237 Q -2.157562087667717 -1.8197176580721806 -2.1472180092965387 -1.8500161735911118 L -1.5987364844592236 -1.8678211423395727 L -1.5860251985719258 -1.8363183930771452 L -2.008346879261604 -2.2101825368773302 Q -2.0023544369223427 -2.226091359423661 -1.9960094979748892 -2.2429359950609515 Q -1.989664559027436 -2.259780630698242 -1.9833196200799827 -2.2766252663355333 Q -1.9678097693195415 -2.3178010423378 -1.9537644765623488 -2.3579255953118174 Q -1.9397191838051557 -2.398050148285835 -1.9307850918667446 -2.4246054114409237 Z M -1.221473472780149 -3.114462925242074 Q -1.1965644802380528 -3.0779726239205205 -1.1716355222305188 -3.0453873963985494 Q -1.1467065642229848 -3.0128021688765787 -1.1327090994191704 -2.9958295150161485 Q -1.1199841314157026 -2.980399829688485 -1.1077601759461984 -2.9671493612937607 Q -1.0955362204766943 -2.9538988928990366 -1.0871297554082304 -2.945277330102612 L -1.1048738935350437 -2.9306436168986236 Q -1.1590348694115329 -2.980599484342863 -1.2022765960129487 -3.0000263492605073 Q -1.2455183226143647 -3.0194532141781516 -1.2824973925412357 -3.011639867434049 Q -1.3194764624681068 -3.0038265206899464 -1.3541932544553503 -2.9751953426821443 L -1.3858241093770611 -2.9491091582750353 Q -1.4089686373685568 -2.9300217062698337 -1.416973917230246 -2.916938683135404 Q -1.4249791970919354 -2.903855660000974 -1.4196110166213372 -2.8894878961375507 Q -1.414242836150739 -2.8751201322741275 -1.3938828873451907 -2.8504326357498653 L -1.0630337192550303 -2.449260817230607 Q -1.0433100188496554 -2.425344804972728 -1.0299088715151388 -2.4169537829778474 Q -1.016507724180622 -2.4085627609829663 -1.0021399603171988 -2.4139309414535646 Q -0.9877721964537756 -2.4192991219241624 -0.9646276684622799 -2.438386573929364 L -0.9268249394095036 -2.46956274553786 Q -0.8921081474222601 -2.4981939235456623 -0.8778987840354211 -2.5351884365461164 Q -0.8636894206485821 -2.5721829495465705 -0.874691730930343 -2.624030795870828 Q -0.885694041212104 -2.675878642195086 -0.9265646177629935 -2.745868612707995 L -0.9088204796361801 -2.760502325911983 Q -0.8907749836297814 -2.7339060841872005 -0.8576900668207652 -2.693788902335275 Q -0.8430563536167774 -2.6760447642084615 -0.815562436543112 -2.644278673420541 Q -0.7880685194694467 -2.6125125826326205 -0.7555799201297284 -2.580977032646244 Q -0.7961981145156178 -2.5500713327701674 -0.8458912317642286 -2.5097371772922625 Q -0.8955843490128395 -2.4694030218143572 -0.9341585623319988 -2.437590601805688 Q -0.9603890273890273 -2.415958156199793 -1.0035921463064859 -2.3803282457900834 Q -1.0467952652239445 -2.344698335380374 -1.0950806498059986 -2.304228944036259 Q -1.143366034388053 -2.2637595526921444 -1.1837536879723984 -2.227859170550015 L -1.1964786559758662 -2.2432888558776787 Q -1.1730636562519507 -2.2651917732159936 -1.16453739839086 -2.280000653217067 Q -1.1560111405297695 -2.29480953321814 -1.1632204482677828 -2.312195616213991 Q -1.1704297560057961 -2.329581699209842 -1.193334698412038 -2.357355132799637 L -1.5089139048980371 -2.7400113289256987 Q -1.5324550957044525 -2.768556246781877 -1.5478326061725942 -2.778557855242629 Q -1.563210116640736 -2.7885594637033813 -1.5800752216371858 -2.7830760128320113 Q -1.5969403266336353 -2.777592561960641 -1.6214925872916877 -2.7586403458216493 L -1.6342175552951552 -2.774070031149313 Q -1.5919211565102898 -2.8076559604922924 -1.5426813993279753 -2.846968125436833 Q -1.493441642145661 -2.886280290381373 -1.4502385232282025 -2.9219102007910824 Q -1.4070354043107438 -2.957540111200792 -1.3808049392537154 -2.979172556806687 Q -1.3453166630000886 -3.0084399832146627 -1.3005029576167588 -3.0460462567579976 Q -1.255689252233429 -3.083652530301332 -1.221473472780149 -3.114462925242074 Z M -1.1242280654766288 -2.751360555711975 Q -1.1242280654766288 -2.751360555711975 -1.117865581474895 -2.7436457130481435 Q -1.111503097473161 -2.7359308703843115 -1.111503097473161 -2.7359308703843115 L -1.2465128440902191 -2.624587400353969 Q -1.2465128440902191 -2.624587400353969 -1.2528753280919531 -2.632302243017801 Q -1.259237812093687 -2.6400170856816327 -1.259237812093687 -2.6400170856816327 L -1.1242280654766288 -2.751360555711975 Z M -1.1858398105744032 -2.8716476824795842 Q -1.1526595888300528 -2.825128085695049 -1.1331863946916596 -2.80230168190364 Q -1.1137132005532666 -2.779475278112231 -1.097806990548932 -2.7601881714526515 Q -1.0819007805445973 -2.740901064793072 -1.0620418442730126 -2.7183927852017495 Q -1.0421829080014278 -2.6958845056104273 -1.002830812126012 -2.654454896027279 L -1.0205749502528254 -2.639821182823291 Q -1.0467010655908098 -2.663641890145836 -1.0762035551921845 -2.6781970647349906 Q -1.1057060447935592 -2.692752239324146 -1.1367637468563465 -2.6911184882479002 Q -1.1678214489191339 -2.6894847371716546 -1.1986808195744614 -2.664034801164719 L -1.2114057875779292 -2.6794644864923827 Q -1.1805464169226016 -2.7049144224993182 -1.1760282593332194 -2.7371570379639096 Q -1.1715101017438374 -2.769399653428501 -1.1808863824861442 -2.8012011527554423 Q -1.190262663228451 -2.8330026520823837 -1.2035839487012165 -2.8570139692755965 L -1.1858398105744032 -2.8716476824795842 Z M -0.5282073644197264 -3.3994385246065217 Q -0.3360170698614038 -3.4427038765360414 -0.22270479942845467 -3.3764726197962647 Q -0.10939252899550556 -3.310241363056488 -0.07271580933951682 -3.1473186260451183 Q -0.048777112079021245 -3.0409798336245233 -0.07673050122615477 -2.9511474450601036 Q -0.1046838903732884 -2.8613150564956835 -0.18211582197806753 -2.7977576338925543 Q -0.25954775358284665 -2.7342002112894246 -0.3814959100284828 -2.706747576816379 Q -0.40490995606604496 -2.7014766709975544 -0.448652931374368 -2.6931669110024976 Q -0.49239590668269106 -2.6848571510074413 -0.524590219984339 -2.6776096555065574 Q -0.567515971053203 -2.6679463281720452 -0.608868533706827 -2.6581246398254272 Q -0.6502210963604511 -2.6483029514788092 -0.6741714854980096 -2.64086125408107 L -0.678563907013697 -2.660372959112372 Q -0.6477844211151829 -2.6693520040406016 -0.6334927835448476 -2.678719452762542 Q -0.6192011459745123 -2.6880869014844824 -0.6177886064550229 -2.706855351929468 Q -0.6163760669355334 -2.7256238023744537 -0.6242824256637705 -2.7607448714307967 L -0.7332144792528148 -3.244635156207081 Q -0.7413404590568363 -3.2807318105149896 -0.7505495467666706 -3.2965966365005643 Q -0.759758634476505 -3.3124614624861395 -0.7772833281199273 -3.3151790188708707 Q -0.7948080217633496 -3.3178965752556016 -0.8252707856376518 -3.3120639071578513 L -0.8296632071533391 -3.3315756121891535 Q -0.8050539547884275 -3.3360905538321974 -0.7632621499832346 -3.343961071675685 Q -0.7214703451780418 -3.351831589519173 -0.6807153856880924 -3.3620312599536812 Q -0.6458139377075336 -3.3709132039334833 -0.6016444298371063 -3.3818815481332374 Q -0.5574749219666791 -3.3928498923329906 -0.5282073644197264 -3.3994385246065217 Z M -0.525229770307173 -3.3816583690025657 Q -0.5701066918791671 -3.371555799516485 -0.5800313271127442 -3.3518961551788973 Q -0.5899559623463213 -3.3322365108413097 -0.5785356664055343 -3.281506077759925 L -0.4687251285133526 -2.7937134519773803 Q -0.45730483257256566 -2.7429830188959956 -0.43942528813653764 -2.7295825752182625 Q -0.4215457437005097 -2.7161821315405295 -0.37666882212851555 -2.72628470102661 Q -0.29471966099704805 -2.7447328713924963 -0.2560788087896236 -2.793920111004859 Q -0.21743795658219905 -2.8431073506172218 -0.21364186805894392 -2.9218638723276404 Q -0.20984577953568867 -3.0006203940380587 -0.2337844767961843 -3.1069591864586537 Q -0.27068081752795736 -3.2708575087215883 -0.3394201788236597 -3.339435203409139 Q -0.4081595401193623 -3.4080128980966893 -0.525229770307173 -3.3816583690025657 Z M 0.5695119316876875 -3.3889877687378407 L 0.5647735906057898 -3.369557171119867 Q 0.53150465760114 -3.3766408210781944 0.5129629238337963 -3.3744719252990136 Q 0.49442119006645263 -3.372303029519833 0.4844459623344 -3.3567227589286754 Q 0.4744707346023474 -3.3411424883375176 0.4657048036008365 -3.3051958827442665 L 0.3453509401206328 -2.8116587032477383 Q 0.3380065114436912 -2.7815412769398793 0.33882464009631186 -2.765902201982972 Q 0.3396427687489326 -2.750263127026065 0.3515738368705903 -2.7422070973912906 Q 0.36350490499224797 -2.734151067756516 0.3897362117765123 -2.727754307295954 L 0.4373411759405475 -2.716145371645305 Q 0.4820315504618867 -2.7052471871569397 0.5250975985102441 -2.723565634293544 Q 0.5681636465586013 -2.741884081430149 0.6049019697533096 -2.7849049555361125 Q 0.6416402929480178 -2.827925829642076 0.6669921173272673 -2.8896776312404397 L 0.6893373045879367 -2.8842285389962576 Q 0.6783675351060146 -2.851907274207987 0.6655740141848905 -2.7994446606394585 Q 0.6601249219407082 -2.777099473378789 0.6506721014414316 -2.7341152415651524 Q 0.6412192809421551 -2.6911310097515155 0.6349418288041888 -2.644284520078803 Q 0.585867638986546 -2.65831034959944 0.5238081851360781 -2.673958806001962 Q 0.4617487312856101 -2.6896072624044844 0.4131722372406762 -2.7014531151092287 Q 0.38014022129012115 -2.709508294948455 0.3257345479597952 -2.722775649977769 Q 0.2713288746294692 -2.7360430050070828 0.21000403360580505 -2.7504830144746113 Q 0.1486791925821409 -2.76492302394214 0.0957427449054225 -2.7757734851014666 L 0.10048108598732029 -2.79520408271944 Q 0.13204387628426775 -2.789565796750201 0.14900985670321595 -2.791604303170075 Q 0.16597583712216413 -2.793642809589949 0.17558375844081486 -2.809827303648603 Q 0.1851916797594656 -2.8260117977072574 0.1937206937068816 -2.86098687341961 L 0.31123155253794665 -3.3428656943453543 Q 0.3199974835394576 -3.3788122999386054 0.3188001176411754 -3.397117116651854 Q 0.31760275174289326 -3.415421933365103 0.30311246955968185 -3.42564600898351 Q 0.28862218737647044 -3.435870084601917 0.2587416781227063 -3.4441860431597573 L 0.26348001920460407 -3.4636166407777305 Q 0.2875313491729762 -3.45672218454446 0.3285844520570751 -3.4456816798645282 Q 0.369637554941174 -3.4346411751845967 0.41627098922431055 -3.4232691565880424 Q 0.4590183039838524 -3.412844806207867 0.5005452409761411 -3.403747361289733 Q 0.5420721779684297 -3.394649916371599 0.5695119316876875 -3.3889877687378407 Z M 1.3331685059589837 -3.0258532976452193 L 1.3223591718343424 -3.009025989607929 Q 1.2948950122684453 -3.025479558805491 1.2774994495471723 -3.0289283843462007 Q 1.2601038868258991 -3.032377209886911 1.2464388924575154 -3.0203556488854417 Q 1.2327738980891314 -3.008334087883973 1.2127766299585445 -2.9772035680149855 L 0.9447051436674351 -2.559886328690182 Q 0.9252483422430804 -2.529597174223059 0.9201474512411579 -2.511480030105221 Q 0.9150465602392355 -2.4933628859873833 0.9252656064316753 -2.479667226276483 Q 0.9354846526241153 -2.4659715665655826 0.9613274120713159 -2.4469939011624273 L 0.9505180779466744 -2.430166593125137 Q 0.9288821455087963 -2.446441924997132 0.894656397385467 -2.469021742653579 Q 0.8604306492621375 -2.4916015603100266 0.8250933023838275 -2.514301161971774 Q 0.7838663976924659 -2.540784030577145 0.748679500161972 -2.5627927161848443 Q 0.7134926026314783 -2.584801401792543 0.6905361687705366 -2.597170805350848 L 0.701345502895178 -2.6139981133881385 Q 0.729350129167307 -2.5983859095924413 0.7460547758345318 -2.5947866347039152 Q 0.7627594225017567 -2.591187359815389 0.7771153329241889 -2.6033593701646742 Q 0.7914712433466211 -2.615531380513959 0.8109280447709758 -2.6458205349810817 L 1.0789995310620852 -3.063137774305886 Q 1.0989967991926721 -3.094268294174873 1.1038274568414783 -3.1119647555917784 Q 1.108658114490285 -3.1296612170086844 1.0982886189500287 -3.144047792773633 Q 1.0879191234097725 -3.1584343685385816 1.0623772626582044 -3.1760302018336404 L 1.073186596782846 -3.192857509870931 Q 1.0945216305250915 -3.1779640101070323 1.1288978279962372 -3.1546932763965367 Q 1.1632740254673828 -3.131422542686041 1.2045009301587446 -3.1049396740806694 Q 1.2398382770370544 -3.082240072418922 1.2748747252197319 -3.0609223028652717 Q 1.3099111734024096 -3.0396045333116213 1.3331685059589837 -3.0258532976452193 Z M 1.9088494434527745 -2.413352075972363 Q 1.8711995296460278 -2.388382414574087 1.837453921803272 -2.363332784809898 Q 1.803708313960516 -2.3382831550457097 1.7857414095306574 -2.323923825492826 Q 1.7685556748586186 -2.310188814616154 1.7535565983784323 -2.296921271334087 Q 1.7385575218982456 -2.28365372805202 1.728245463964979 -2.2741320968272274 L 1.713886134412095 -2.2920990012570863 Q 1.7667012327312899 -2.3509510648533083 1.7871039574013932 -2.3967001503746164 Q 1.8075066820714965 -2.4424492358959244 1.8014342318169616 -2.480480477630927 Q 1.795361781562427 -2.5185117193659297 1.7666431224566592 -2.5544455282256466 L 1.7460406061416518 -2.580224130233705 Q 1.7279353645314937 -2.602878053210483 1.7146647355992086 -2.6114740061967203 Q 1.7013941066669238 -2.620069959182958 1.686554966918563 -2.614611027828872 Q 1.6717158271702022 -2.6091520964747867 1.647499564677784 -2.589798217512204 L 1.2553523462521743 -2.276390242053606 Q 1.2248867256971965 -2.2520418136813247 1.2150390497083166 -2.2339304007707304 Q 1.2051913737194364 -2.2158189878601364 1.2148636847254006 -2.194106171373004 Q 1.224535995731365 -2.172393354885871 1.2518491664031006 -2.1366163971077614 L 1.234663431731062 -2.12288138623109 Q 1.2160907225262991 -2.14772196739972 1.1862802771497143 -2.18662360420911 Q 1.1564698317731292 -2.225525241018499 1.1227566232576625 -2.2677084079407757 Q 1.0959109201805315 -2.301298707527033 1.0695326846980053 -2.3327023489214382 Q 1.0431544492154792 -2.3641059903158435 1.0217707631426518 -2.389260273647689 L 1.0373941582990507 -2.401746647171936 Q 1.0589346954534857 -2.377997852274123 1.0736108128198028 -2.369245048206278 Q 1.08828693018612 -2.360492244138433 1.1057817385460469 -2.3674335466422454 Q 1.1232765469059736 -2.374374849146058 1.1513986581874915 -2.3968503214897026 L 1.5388588580661815 -2.706512384891026 Q 1.5677621391055194 -2.729612175910883 1.5779988571482004 -2.744834186412609 Q 1.5882355751908814 -2.7600561969143347 1.5830119204592075 -2.777003569313744 Q 1.5777882657275333 -2.793950941713153 1.5592155565227706 -2.8187915228817837 L 1.5748389516791694 -2.8312778964060303 Q 1.607770990436816 -2.7884704108075415 1.646321897280374 -2.738632397388673 Q 1.6848728041239318 -2.6887943839698045 1.7198346499918231 -2.6450488775318877 Q 1.7547964958597146 -2.6013033710939713 1.7760233308509343 -2.574743599328093 Q 1.8047419899567023 -2.5388097904683757 1.8416552173940346 -2.4934235189740157 Q 1.8785684448313669 -2.4480372474796552 1.9088494434527745 -2.413352075972363 Z M 1.5455412244914357 -2.313732107918062 Q 1.5455412244914357 -2.313732107918062 1.5377295269132365 -2.3074889211559384 Q 1.529917829335037 -2.301245734393815 1.529917829335037 -2.301245734393815 L 1.4162918302643899 -2.443418630317044 Q 1.4162918302643899 -2.443418630317044 1.4241035278425893 -2.4496618170791673 Q 1.4319152254207888 -2.455905003841291 1.4319152254207888 -2.455905003841291 L 1.5455412244914357 -2.313732107918062 Z M 1.6642635994289765 -2.3766129292325933 Q 1.6172396485283906 -2.344151443719769 1.5941167151318987 -2.3250312985544888 Q 1.5709937817354065 -2.3059111533892085 1.5514645377899081 -2.2903031864838996 Q 1.5319352938444095 -2.274695219578591 1.5091245197860237 -2.255184489534401 Q 1.4863137457276379 -2.2356737594902105 1.4442843442367508 -2.1969629159148267 L 1.4299250146838667 -2.2149298203446857 Q 1.4535200441502905 -2.2414679925590373 1.4688389940941282 -2.270352759697067 Q 1.484157944037966 -2.2992375268350966 1.4830016176523262 -2.3303166662905235 Q 1.4818452912666864 -2.3613958057459503 1.4568725442181925 -2.392642596058748 L 1.4724959393745913 -2.4051289695829947 Q 1.497468686423085 -2.3738821792701974 1.5296380693242202 -2.3688691159591904 Q 1.561807452225355 -2.3638560526481833 1.5934371132915177 -2.373133150299911 Q 1.62506677435768 -2.382410247951638 1.6499042698760926 -2.3945798336624518 L 1.6642635994289765 -2.3766129292325933 Z M 2.2141476144537853 -1.5740242438917744 Q 2.170625983626776 -1.5664171649413825 2.1306522858502657 -1.5571784698997553 Q 2.0906785880737546 -1.547939774858128 2.069439082083534 -1.542205371202003 Q 2.0501304402742426 -1.536992276969162 2.0330133173575224 -1.5313350600691407 Q 2.015896194440802 -1.525677843169119 2.0045716640668694 -1.5215845545389497 L 1.998576605699102 -1.543789492619635 Q 2.0664466011865956 -1.5724716074741505 2.1020037160868568 -1.6038235066186937 Q 2.137560830987118 -1.635175405763237 2.1457239597302395 -1.6720788382475362 Q 2.153887088473361 -1.7089822707318352 2.142157626449469 -1.7524267148027413 L 2.1314707832721447 -1.7920094305117886 Q 2.123651141922883 -1.820972393225726 2.1150444881517503 -1.833667884979252 Q 2.1064378343806176 -1.846363376732778 2.091135795510671 -1.8474110438662912 Q 2.0758337566407246 -1.8484587109998045 2.0449399297458584 -1.8401177602272587 L 1.5429152427042792 -1.7045773101733925 Q 1.5129868478998774 -1.6964970141124889 1.499808640101119 -1.6877600329855351 Q 1.4866304323023607 -1.6790230518585816 1.4855827651688476 -1.6637210129886348 Q 1.4845350980353345 -1.6484189741186883 1.492354739384596 -1.6194560114047512 L 1.5051268202550563 -1.572149838971987 Q 1.5168562822789486 -1.5287053949010811 1.5446747955946587 -1.5004807546570733 Q 1.5724933089103685 -1.4722561144130655 1.624254657597434 -1.4608537996438598 Q 1.676016006284499 -1.449451484874654 1.7566390847730118 -1.4577532446299786 L 1.762634143140779 -1.4355483065492933 Q 1.7309583521109864 -1.4301036520481414 1.6807558834068286 -1.4165496070427548 Q 1.6585509453261431 -1.4105545486749875 1.6182634522382733 -1.398641618695557 Q 1.577975959150403 -1.386728688716126 1.5358347886377075 -1.370172066239911 Q 1.5244722625248919 -1.4199304122768885 1.508273077025033 -1.4818483934224422 Q 1.4920738915251741 -1.5437663745679961 1.4790411559430716 -1.592037979091225 Q 1.470178895747242 -1.6248626701670204 1.455582231895287 -1.6789268672330366 Q 1.440985568043332 -1.732991064299053 1.4240816051646505 -1.7936829586425 Q 1.4071776422859692 -1.8543748529859472 1.3911714236763693 -1.9059868764477503 L 1.4104800654856608 -1.9111999706805913 Q 1.4207518804391355 -1.880827453209009 1.4307149483681958 -1.866944468031428 Q 1.4406780162972561 -1.8530614828538472 1.4594893948396497 -1.8524433911658489 Q 1.4783007733820432 -1.8518252994778506 1.513056328638768 -1.8612088690969644 L 1.9919106455091973 -1.9904936060714216 Q 2.0276316328563864 -2.0001378304021773 2.0430930935254854 -2.0100091643534683 Q 2.058554554194584 -2.01988049830476 2.06052906004051 -2.0375043834230984 Q 2.062503565886436 -2.0551282685414374 2.055388701915997 -2.085317318057481 L 2.0746973437252882 -2.090530412290322 Q 2.0878072660634945 -2.038136424693593 2.103263080806479 -1.9770535482826828 Q 2.118718895549464 -1.9159706718717724 2.1333155594014186 -1.8619064748057563 Q 2.1479122232533734 -1.80784227773974 2.1567744834492033 -1.7750175866639446 Q 2.168764600184738 -1.7306077105025741 2.18449561686103 -1.6742602605662174 Q 2.200226633537322 -1.6179128106298608 2.2141476144537853 -1.5740242438917744 Z M 1.843307704498741 -1.635487738622667 Q 1.843307704498741 -1.635487738622667 1.8336533835940951 -1.6328811915062462 Q 1.8239990626894496 -1.630274644389826 1.8239990626894496 -1.630274644389826 L 1.7783844881520907 -1.7992252602211265 Q 1.7783844881520907 -1.7992252602211265 1.7880388090567365 -1.801831807337547 Q 1.797693129961382 -1.8044383544539675 1.797693129961382 -1.8044383544539675 L 1.843307704498741 -1.635487738622667 Z M 1.9783037270776842 -1.6418966299359448 Q 1.9222314790746355 -1.6309010397342063 1.8933988437165192 -1.6225986823397125 Q 1.864566208358403 -1.6142963249452187 1.8404304060967887 -1.6077799571541673 Q 1.8162946038351742 -1.6012635893631162 1.787592295832879 -1.59247851592339 Q 1.758889987830584 -1.583693442483664 1.7049029775206712 -1.5649743955582087 L 1.698907919152904 -1.587179333638894 Q 1.7313947687609539 -1.6011294089986885 1.7568388928677234 -1.6219823835692218 Q 1.782283016974493 -1.642835358139755 1.7936271428570363 -1.6717932725667475 Q 1.8049712687395798 -1.7007511869937397 1.7945450802738978 -1.7393684706123227 L 1.8138537220831892 -1.7445815648451637 Q 1.8242799105488712 -1.7059642812265807 1.8517751296185012 -1.6885283147115562 Q 1.879270348688131 -1.6710923481965314 1.9121045386986473 -1.6664916997255745 Q 1.9449387287091633 -1.6618910512546177 1.9723086687099172 -1.6641015680166302 L 1.9783037270776842 -1.6418966299359448 Z" fill="#004a80" fill-rule="nonzero"></path></g><g clip-path="url(&quot;#SvgjsClipPath1019&quot;)"><g clip-path="url(&quot;#SvgjsClipPath1008&quot;)"><path d=" M 1.0560042427464733 -1.39075885446168 C 1.0576936818258842 -1.3947834638202743 1.059099537570329 -1.3989213175835649 1.060211517366909 -1.4031421215146087 C 1.0837998734716292 -1.4753834421494951 1.0957611380466612 -1.5509136305737177 1.0956480469019083 -1.6269084077705003 C 1.0956480469019083 -1.9914665849328892 0.8269246457585908 -2.287038470509701 0.49543911703002896 -2.287038470509701 C 0.28978146122806936 -2.287038470509701 0.10832647798489758 -2.1731818119670154 0.00019518284321673463 -1.9997076383131216 L 0.00019518284321673463 -1.9997076383131216 L 0.00004337396515974312 -1.9994690815047467 L -0.00008674793031793193 -1.9997076383131216 L -0.00008674793031793193 -1.9997076383131216 C -0.10821804307199878 -2.173203498949595 -0.28969471329774965 -2.287038470509701 -0.4953957430648691 -2.287038470509701 C -0.8268378978282727 -2.287038470509701 -1.0955829859541695 -1.9914665849328892 -1.0955829859541695 -1.6269084077704998 C -1.095689075734226 -1.550912467821647 -1.083720486398435 -1.4753822508389822 -1.0601247694365847 -1.4031421215145925 C -1.0590249857965464 -1.3989149550403308 -1.0576114099971567 -1.3947757151354505 -1.055895807833576 -1.39075885446168 C -1.0555921900774623 -1.3899130621410776 -1.0552668853387694 -1.3891106437856342 -1.0549632675826557 -1.3882648514650309 C -1.0523825166556873 -1.3808912773879807 -1.0497583917635607 -1.3735177033109305 -1.0469390840282173 -1.366317625094517 C -0.7671770087519048 -0.614061260357349 -0.00006506094773883753 -0.18752168698257954 -0.00006506094773883753 -0.18752168698257954 L 0.00021686982579582903 -0.18752168698257954 C 0.00021686982579582903 -0.18752168698257954 0.7673505046125408 -0.614061260357349 1.0470692059236955 -1.366317625094517 C 1.0499318876241985 -1.3735177033109305 1.0525343255337445 -1.3808912773879807 1.0551150764607127 -1.3882648514650309 Z" fill="#fff1cc" transform="matrix(1,0,0,1,0,0)" fill-rule="nonzero"></path></g><g clip-path="url(&quot;#SvgjsClipPath1008&quot;)"><path d=" M 0.9751768586724565 -1.417650712860334 C 0.9767520501630802 -1.4213612469314811 0.9780566758740084 -1.4251809010962542 0.979080515536777 -1.4290797526797614 C 1.0008426862084248 -1.4961298574713688 1.011879948319705 -1.566195978287875 1.0117844852667512 -1.6366892369138815 C 1.0117844852667512 -1.9750061651550042 0.7636420305914355 -2.2664575240416998 0.457551958463539 -2.2664575240416998 C 0.2676173650317597 -2.2664575240416998 0.10004205063950522 -2.189165118128151 0.0001734958606360859 -2.0282043334226625 L 0.0001734958606360859 -2.012654766913119 L 0.0001734958606360859 -2.043667152001889 L 0.00004337396515974312 -1.999555829435065 L 0.00004337396515974312 -2.043667152001889 L 0.00004337396515974312 -2.029093499708425 C -0.09984686779629004 -2.190075971396493 -0.2674004952059639 -2.2664575240417 -0.45735677562032373 -2.2664575240417 C -0.7634468477482204 -2.2664575240417 -1.011589302423536 -1.975049539120164 -1.011589302423536 -1.636689236913882 C -1.0116823430225375 -1.5661978647095107 -1.0006526358379793 -1.4961332416983515 -0.978907019676158 -1.4290797526798151 C -0.9778757604266091 -1.4251804387120286 -0.9765638917042793 -1.4213607988409396 -0.9749816758292413 -1.4176507128603346 C -0.9746780580731276 -1.4168266075223115 -0.9743744403170123 -1.4160458761494472 -0.9741141965260584 -1.4152434577940034 C -0.9717286284423066 -1.408433745264022 -0.9692779994108159 -1.4016457197166199 -0.9666755615012684 -1.3949444420995358 C -0.7083402250135602 -0.6968838468286855 0.00006506094773883753 -0.3010747277691517 0.00006506094773883753 -0.3010747277691517 L 0.0003036177561153153 -0.3010747277691517 C 0.0003036177561153153 -0.3010747277691517 0.7087305906999952 -0.6968838468286855 0.9670225532225452 -1.3949444420995358 C 0.969646678114672 -1.4016457197166194 0.9720756201635816 -1.4084337452640217 0.9744828752299126 -1.4152434577940034 C 0.974569623160229 -1.4160458761494463 0.9748949278989221 -1.4169133554526285 0.9751768586724565 -1.417650712860334 Z" fill="#ff8080" transform="matrix(1,0,0,1,0,0)" fill-rule="nonzero"></path></g><g clip-path="url(&quot;#SvgjsClipPath1008&quot;)"><path d=" M -0.9295040733599061 -1.7029646556770137 L -0.9295040733599061 -1.7029646556770137 C -0.8689757049803568 -2.07457110217776 -0.5825123520869595 -2.1685624846775693 -0.5703459548598275 -2.1723793936115716 L -0.5703459548598275 -2.1723793936115716 C -0.5810159502889699 -2.1689962243291605 -0.8186619053957791 -2.014649969310438 -0.9295040733599061 -1.7029646556770137 Z" fill="#fff1cc" transform="matrix(1,0,0,1,0,0)" fill-rule="nonzero"></path></g><g clip-path="url(&quot;#SvgjsClipPath1008&quot;)"><path d=" M 0.9192244436171939 -1.7029646556770137 L 0.9192244436171939 -1.7029646556770137 C 0.8587177622202238 -2.07457110217776 0.5722327223442474 -2.1685624846775693 0.5600880120996945 -2.1723793936115716 L 0.5600880120996945 -2.1723793936115716 C 0.5708013814939967 -2.1689962243291605 0.808447336600806 -2.014649969310438 0.9192244436171939 -1.7029646556770137 Z" fill="#fff1cc" transform="matrix(1,0,0,1,0,0)" fill-rule="nonzero"></path></g><g clip-path="url(&quot;#SvgjsClipPath1008&quot;)"><path d=" M -0.30058157855269096 -0.27665518538456757 C -0.48022670064595485 -0.386362761210697 -0.6428890711195697 -0.5217150373243413 -0.7834205587039964 -0.6784282246534805 C -0.9105308572937945 -0.8235450638727442 -1.009591529561922 -0.9910017952876204 -1.0755659010332383 -1.1722841919552016 L -1.0755659010332368 -1.1722841919552016 C -1.0729851501062684 -1.167035942170948 -0.8136955863850606 -0.6420157809024005 -0.30058157855269096 -0.2766118114194085 Z" fill="#004a80" transform="matrix(1,0,0,1,0,0)" fill-rule="nonzero"></path></g><g clip-path="url(&quot;#SvgjsClipPath1008&quot;)"><path d=" M 0.3006032655352686 -0.27665518538456757 C 0.48025822729812795 -0.38635800333683457 0.6429284135474571 -0.5217107035593849 0.783463932669153 -0.6784282246534798 C 0.9105538247986527 -0.8235559931083385 1.0096056050739088 -0.9910101238008506 1.0755875880158174 -1.1722841919552023 L 1.075587588015816 -1.1722841919552023 C 1.0730285240714283 -1.167035942170948 0.8137172733676399 -0.6420157809024005 0.3006032655352686 -0.2766118114194085 Z" fill="#004a80" transform="matrix(1,0,0,1,0,0)" fill-rule="nonzero"></path></g><g clip-path="url(&quot;#SvgjsClipPath1008&quot;)"><path d=" M 0.4504603151600226 -0.8208032652882862 L 0.4504603151600226 -1.5853995231132239 L 0.4494627139613634 -1.5853995231132239 C 0.4374914995774464 -1.7367312875533876 0.30455029636474884 -1.8288142155861957 0.231530226019373 -1.8793448849965688 C 0.21716820468502984 -1.8887886061684818 0.20331277548679427 -1.8989811058085637 0.19002134136209725 -1.9098801564685886 L 0.19002134136209725 -1.9417383338779604 C 0.21727006525677472 -1.956571390815324 0.23485989179352318 -1.9844917503974648 0.236474858047514 -2.0154740746484614 C 0.23612277526815983 -2.03635212542415 0.22746777773306914 -2.056229743748655 0.2124239943667816 -2.070710819278599 C 0.22748134529395192 -2.085164552009623 0.23614003023411656 -2.1050350237614026 0.2364748580475109 -2.1259041899435767 C 0.23647485804751245 -2.2043893798990015 0.11658921834770908 -2.2454211509395274 -0.0018650805018420868 -2.2454211509395274 C -0.12031937935139492 -2.2454211509395274 -0.2402050190511985 -2.2043893798990015 -0.2402050190511985 -2.1259041899435767 C -0.23987019123780084 -2.1050350237614026 -0.2312115062976362 -2.085164552009623 -0.216154155370466 -2.070710819278599 C -0.23119793873675354 -2.0562297437486543 -0.23985293627184423 -2.0363521254241492 -0.2402050190511985 -2.0154740746484614 C -0.23859069348427153 -1.984503355949493 -0.2210209079748504 -1.9565887434578881 -0.19379487633094128 -1.9417383338779604 L -0.19379487633094128 -1.909880156468588 C -0.2070621686099211 -1.8989790727541467 -0.2208960514211381 -1.8887864474280367 -0.2352387000404783 -1.879344884996569 C -0.3082587703858557 -1.8288142155861957 -0.4412650345462906 -1.736731287553388 -0.45323624893020753 -1.5853995231132239 L -0.45410372823338896 -1.5853995231132239 L -0.45410372823338896 -0.8208466392534455 C -0.45439194065726096 -0.8169121083940065 -0.45439194065726096 -0.8129617646070246 -0.45410372823338896 -0.8090272337475857 C -0.45410372823338896 -0.8082681893573014 -0.45410372823338896 -0.8075091449670166 -0.45410372823338896 -0.8068585354896296 C -0.45410372823338896 -0.6873415744936793 -0.25965824242506186 -0.5972104748930314 -0.0017783325715257092 -0.5972104748930314 C 0.2561015772820119 -0.5972104748930314 0.450547063090339 -0.6873415744936793 0.450547063090339 -0.8068585354896296 C 0.450547063090339 -0.8076175798799143 0.450547063090339 -0.8083983112527786 0.450547063090339 -0.8091790426256427 C 0.4507902947406044 -0.8130510367880637 0.45076130745918164 -0.8169353324986217 0.4504603151600226 -0.8208032652882862 Z" fill="#ff8080" transform="matrix(1,0,0,1,0,0)" fill-rule="nonzero"></path></g><g clip-path="url(&quot;#SvgjsClipPath1008&quot;)"><path d=" M 0.31613114506223394 -1.5803030822070276 C 0.31613114506223394 -1.5063504716107308 0.17373441744484897 -1.446407651760829 -0.0018650805018420868 -1.446407651760829 C -0.17746457844853336 -1.446407651760829 -0.31988299304849754 -1.5063504716107308 -0.31988299304849754 -1.5803030822070276 C -0.31988299304849754 -1.6542556928033245 -0.17750795241369155 -1.7142418866183848 -0.0018650805018420868 -1.7142418866183848 C 0.17377779141000715 -1.7142418866183848 0.31613114506223394 -1.6542773797859036 0.31613114506223394 -1.5803030822070276 Z" fill="#004a80" transform="matrix(1,0,0,1,0,0)" fill-rule="nonzero"></path></g><g clip-path="url(&quot;#SvgjsClipPath1008&quot;)"><path d=" M -0.0018650805018420868 -1.4188868708673683 C -0.1988479432719794 -1.4188868708673683 -0.34740377394195887 -1.4882852151219579 -0.34740377394195887 -1.5803030822070272 C -0.34740377394195887 -1.6723209492920965 -0.19884794327197786 -1.7417409805292654 -0.0018650805018420868 -1.7417409805292654 C 0.19511778226829346 -1.7417409805292654 0.3436736129382729 -1.6723426362746765 0.3436736129382729 -1.5803030822070272 C 0.3436736129382729 -1.488263528139378 0.19511778226829346 -1.4188868708673683 -0.0018650805018420868 -1.4188868708673683 Z M -0.0018650805018420868 -1.6866994187423447 C -0.16813917593932215 -1.6866994187423447 -0.29236221215503766 -1.6305518208438659 -0.29236221215503766 -1.5803030822070272 C -0.29236221215503766 -1.5300543435701885 -0.16813917593932215 -1.4739284326542896 -0.0018650805018420868 -1.4739284326542896 C 0.16440901493563786 -1.4739284326542896 0.2886103641687725 -1.530119404517927 0.2886103641687725 -1.5803030822070272 C 0.2886103641687725 -1.6304867598961272 0.1643656409704779 -1.6866994187423447 -0.0018650805018420868 -1.6866994187423447 Z" fill="#fff1cc" transform="matrix(1,0,0,1,0,0)" fill-rule="nonzero"></path></g><g clip-path="url(&quot;#SvgjsClipPath1008&quot;)"><path d=" M -0.0018650805018420868 -0.9784893156242609 C -0.1988479432719794 -0.9784893156242609 -0.34740377394195887 -0.9201296455026671 -0.34740377394195887 -0.8427938656239593 C -0.34740377394195887 -0.7654580857452515 -0.19884794327197786 -0.7070550416584986 -0.0018650805018420868 -0.7070550416584986 C 0.19511778226829346 -0.7070550416584986 0.3436736129382729 -0.7654147117800922 0.3436736129382729 -0.8427938656239593 C 0.3436736129382729 -0.9201730194678261 0.19511778226829346 -0.9784893156242609 -0.0018650805018420868 -0.9784893156242609 Z" fill="#fff1cc" transform="matrix(1,0,0,1,0,0)" fill-rule="nonzero"></path></g><g clip-path="url(&quot;#SvgjsClipPath1008&quot;)"><path d=" M 0.20335883564852586 -2.015474074648461 C 0.20335883564852586 -1.967762712973431 0.111471090458932 -1.9290731360514974 -0.0018650805018436412 -1.9290731360514974 C -0.1152012514626195 -1.9290731360514974 -0.20708899665221192 -1.9677410259908519 -0.20708899665221192 -2.015474074648461 C -0.20708899665221192 -2.0632071233060705 -0.1152012514626195 -2.101875013245425 -0.0018650805018436412 -2.101875013245425 C 0.111471090458932 -2.101875013245425 0.20335883564852586 -2.0631854363234914 0.20335883564852586 -2.015474074648461 Z" fill="#004a80" transform="matrix(1,0,0,1,0,0)" fill-rule="nonzero"></path></g><g clip-path="url(&quot;#SvgjsClipPath1008&quot;)"><path d=" M -0.0018650805018420868 -1.895892052704772 C -0.12029769236881582 -1.895892052704772 -0.2402050190511985 -1.9369671977104572 -0.2402050190511985 -2.015452387665882 C -0.2402050190511985 -2.0939375776213067 -0.12029769236881582 -2.1349910356444117 -0.0018650805018420868 -2.1349910356444117 C 0.11656753136512998 -2.1349910356444117 0.23647485804751245 -2.0939375776213067 0.23647485804751245 -2.015452387665882 C 0.23647485804751245 -1.9369671977104572 0.11658921834770908 -1.895892052704772 -0.0018650805018420868 -1.895892052704772 Z M -0.0018650805018420868 -2.068715616881279 C -0.1136614756994686 -2.068715616881279 -0.17395128727064457 -2.0309152062451075 -0.17395128727064457 -2.0154523876658814 C -0.17395128727064457 -1.9999895690866558 -0.11366147569947016 -1.9621674714679052 -0.0018650805018420868 -1.9621674714679052 C 0.10993131469578565 -1.9621674714679052 0.17019943928438108 -1.9999895690866563 0.17019943928438108 -2.0154523876658814 C 0.17019943928438108 -2.0309152062451075 0.109909627713205 -2.0687156168812795 -0.0018650805018420868 -2.0687156168812795 Z" fill="#004a80" transform="matrix(1,0,0,1,0,0)" fill-rule="nonzero"></path></g><g clip-path="url(&quot;#SvgjsClipPath1008&quot;)"><path d=" M -0.38791505740057397 -1.5632788008820735 L -0.45410372823338896 -1.5632788008820735 C -0.45410372823338896 -1.7278829986609274 -0.3116853136334249 -1.8264069605198645 -0.23506520417984234 -1.8793448849965684 C -0.22080395436691413 -1.8887934088959342 -0.20704984422250472 -1.8989859284134756 -0.19385993727868023 -1.9098801564685877 L -0.19385993727868023 -1.9755917136846521 L -0.12756283153296666 -1.9755917136846521 L -0.12756283153296666 -1.901964407827049 C -0.12756283153296666 -1.8732942168568714 -0.15245948753430139 -1.8560964396712811 -0.19763347224752292 -1.8248454977741364 C -0.2733644154153433 -1.7724063738967621 -0.38791505740057397 -1.6931621395510532 -0.38791505740057397 -1.5632788008820735 Z" fill="#004a80" transform="matrix(1,0,0,1,0,0)" fill-rule="nonzero"></path></g><g clip-path="url(&quot;#SvgjsClipPath1008&quot;)"><path d=" M 0.4504603151600226 -1.5632788008820735 L 0.3841848963968897 -1.5632788008820735 C 0.3841848963968897 -1.6931621395510532 0.26961256742907813 -1.7724063738967621 0.19381656331351893 -1.8248454977741364 C 0.1486208916177183 -1.8560964396712811 0.12374592259896433 -1.8732942168568714 0.12374592259896433 -1.901964407827049 L 0.12374592259896433 -1.9755917136846521 L 0.1900213413620957 -1.9755917136846521 L 0.1900213413620957 -1.9098801564685877 C 0.20331277548679427 -1.8989811058085628 0.21716820468502984 -1.888788606168481 0.23153022601937145 -1.879344884996568 C 0.308041900560057 -1.826406960519865 0.4504603151600226 -1.7278829986609274 0.4504603151600226 -1.5632788008820735 Z" fill="#004a80" transform="matrix(1,0,0,1,0,0)" fill-rule="nonzero"></path></g><g clip-path="url(&quot;#SvgjsClipPath1008&quot;)"><path d=" M 0.20335883564852586 -2.125882502960997 C 0.20335883564852586 -2.0781711412859667 0.111471090458932 -2.039459877381454 -0.0018650805018436412 -2.039459877381454 C -0.1152012514626195 -2.039459877381454 -0.20708899665221192 -2.0781711412859667 -0.20708899665221192 -2.125882502960997 C -0.20708899665221192 -2.1735938646360276 -0.1152012514626195 -2.2122834415579606 -0.0018650805018436412 -2.2122834415579606 C 0.111471090458932 -2.2122834415579606 0.20335883564852586 -2.1736155516186066 0.20335883564852586 -2.125882502960997 Z" fill="#fff1cc" transform="matrix(1,0,0,1,0,0)" fill-rule="nonzero"></path></g><g clip-path="url(&quot;#SvgjsClipPath1008&quot;)"><path d=" M -0.0018650805018420868 -2.006343854982467 C -0.12029769236881582 -2.006343854982467 -0.2402050190511985 -2.0474189999881522 -0.2402050190511985 -2.125882502960997 C -0.2402050190511985 -2.204346005933842 -0.12029769236881582 -2.2453994639569475 -0.0018650805018420868 -2.2453994639569475 C 0.11656753136512998 -2.2453994639569475 0.23647485804751245 -2.2043676929164215 0.23647485804751245 -2.125882502960997 C 0.23647485804751245 -2.0473973130055727 0.11658921834770908 -2.006343854982467 -0.0018650805018420868 -2.006343854982467 Z M -0.0018650805018420868 -2.1791457321763943 C -0.1136614756994686 -2.1791457321763943 -0.17395128727064457 -2.141345321540223 -0.17395128727064457 -2.125882502960997 C -0.17395128727064457 -2.110419684381771 -0.11366147569947016 -2.0726192737456 -0.0018650805018420868 -2.0726192737456 C 0.10993131469578565 -2.0726192737456 0.17019943928438108 -2.110441371364351 0.17019943928438108 -2.125882502960997 C 0.17019943928438108 -2.141323634557643 0.109909627713205 -2.1791457321763943 -0.0018650805018420868 -2.1791457321763943 Z" fill="#004a80" transform="matrix(1,0,0,1,0,0)" fill-rule="nonzero"></path></g><g clip-path="url(&quot;#SvgjsClipPath1008&quot;)"><path d=" M 0.4504603151600226 -0.8208032652882862 L 0.4504603151600226 -1.5853995231132239 L 0.38375115674529825 -1.5853995231132239 L 0.38375115674529825 -1.5191241043500914 L 0.38418489639688813 -1.5191241043500914 L 0.38418489639688813 -0.8188080628909669 L 0.3844668271704228 -0.8144706663750549 C 0.3844668271704228 -0.8138634308628274 0.3844668271704228 -0.8132345083680201 0.3844668271704228 -0.8126055858732129 C 0.3844668271704228 -0.8106754444236322 0.3842933313097867 -0.808766989956631 0.3842933313097867 -0.8068151615244707 C 0.3842933313097867 -0.7391084019110867 0.21921201991418116 -0.6634208327084254 -0.0017349586063675204 -0.6634208327084254 C -0.22268193712691464 -0.6634208327084254 -0.3877632485225203 -0.7391084019110867 -0.3877632485225203 -0.8068151615244707 C -0.3877632485225203 -0.808766989956631 -0.3877632485225203 -0.8106754444236322 -0.3879367443831563 -0.8126272728557924 C -0.3879367443831563 -0.8132345083680201 -0.3879367443831563 -0.8138417438802477 -0.3880668662786324 -0.8144272924098959 L -0.38776324852251876 -0.8162056249814198 L -0.38776324852251876 -1.5853995231132239 L -0.45410372823338896 -1.5853995231132239 L -0.45410372823338896 -0.8208466392534455 C -0.45439194065726096 -0.8169121083940065 -0.45439194065726096 -0.8129617646070246 -0.45410372823338896 -0.8090272337475857 C -0.45410372823338896 -0.8082681893573014 -0.45410372823338896 -0.8075091449670166 -0.45410372823338896 -0.8068585354896296 C -0.45410372823338896 -0.6873415744936793 -0.25965824242506186 -0.5972104748930314 -0.0017783325715257092 -0.5972104748930314 C 0.2561015772820119 -0.5972104748930314 0.450547063090339 -0.6873415744936793 0.450547063090339 -0.8068585354896296 C 0.450547063090339 -0.8076175798799143 0.450547063090339 -0.8083983112527786 0.450547063090339 -0.8091790426256427 C 0.4507902947406044 -0.8130510367880637 0.45076130745918164 -0.8169353324986217 0.4504603151600226 -0.8208032652882862 Z" fill="#004a80" transform="matrix(1,0,0,1,0,0)" fill-rule="nonzero"></path></g><g clip-path="url(&quot;#SvgjsClipPath1008&quot;)"><path d=" M 0.34367361293827403 -0.84277217864138 L -0.3474037739419581 -0.84277217864138 L -0.3474037739419581 -1.5803030822070279 L -0.1940117461567361 -1.4838610706757285 L -0.006939834425458757 -1.4517860234405602 L 0.21123121032490633 -1.4803694664804192 L 0.34367361293827403 -1.5803030822070279 L 0.34367361293827403 -0.84277217864138 Z" fill="#fff1cc" transform="matrix(1,0,0,1,0,0)" fill-rule="nonzero"></path></g><g clip-path="url(&quot;#SvgjsClipPath1008&quot;)"><path d=" M 0.20335883564852586 -1.507413133757129 C 0.1321604718398326 -1.4697645319990142 0.1528064792555719 -1.4041830966784272 0.11507112956713872 -1.3960938521762523 C 0.09299378130114877 -1.3913444029913284 -0.04779810960534969 -1.4187350619893118 -0.14859920463514076 -1.4589861016569738 C -0.22003612525220895 -1.4874827967665145 -0.2713692130180264 -1.535280906371863 -0.2461906262431569 -1.5256952600716973 C -0.05699339021908312 -1.453954721698516 -0.027976207527633523 -1.565100507418756 0.04714750012795932 -1.6036382754626333 C 0.15638483138119952 -1.659612377500475 0.3151552308461538 -1.5665535352515871 0.20335883564852586 -1.507413133757129 Z" fill="#fff1cc" transform="matrix(1,0,0,1,0,0)" fill-rule="nonzero"></path></g><g clip-path="url(&quot;#SvgjsClipPath1008&quot;)"><path d=" M 0.28663684875403317 -1.158382836121704 C 0.28663684875403317 -1.0470852415234062 0.15746918051017822 -0.9568890809750199 -0.0018000195541032493 -0.9568890809750199 C -0.1610692196183865 -0.9568890809750199 -0.29023688786224144 -1.0470852415234064 -0.29023688786224144 -1.158382836121704 C -0.29023688786224144 -1.2696804307200011 -0.1610692196183865 -1.359919965233547 -0.0018000195541032493 -1.359919965233547 C 0.15746918051017822 -1.359919965233547 0.28663684875403317 -1.2697021177025811 0.28663684875403317 -1.158382836121704 Z" fill="#ff8080" transform="matrix(1,0,0,1,0,0)" fill-rule="nonzero"></path></g></g></g><defs><clipPath id="SvgjsClipPath1019"><path d=" M -1.0956480469019083 -2.2870384705097018 h 2.1912960938038166 v 2.0995384705097018 h -2.1912960938038166 Z"></path></clipPath><clipPath id="SvgjsClipPath1008"><path d=" M -1.0956480469019083 -2.2870384705097018 L 1.0956480469019083 -2.2870384705097018 L 1.0956480469019083 -0.1875 L -1.0956480469019083 -0.1875 Z"></path></clipPath></defs></svg>